<svg width="37" height="36" viewBox="0 0 37 36" fill="none" xmlns="http://www.w3.org/2000/svg">
<path d="M20.3447 24.5299L24.2259 18.2499M24.2259 18.2499L24.6861 17.5099C24.9824 17.02 25.3939 16.6261 25.8776 16.3693C26.3614 16.1124 26.8995 16.0022 27.4356 16.05C27.9718 16.0978 28.4864 16.302 28.9254 16.6412C29.3644 16.9804 29.7118 17.442 29.9312 17.9779L34.6906 29.06C35.6733 31.344 34.1956 34 31.9461 34H5.05469C2.81069 34 1.33302 31.36 2.30285 29.076L12.9509 3.95578C13.1886 3.36883 13.5787 2.87077 14.0732 2.52319C14.5676 2.17562 15.1446 1.99378 15.7327 2.00016C16.3209 2.00655 16.8944 2.20088 17.3824 2.55912C17.8704 2.91736 18.2515 3.42379 18.4784 4.01578L24.2259 18.2499Z" stroke="#FCFCFC" stroke-width="2.7" stroke-linecap="round" stroke-linejoin="round"/>
</svg>
